<?xml version="1.0" encoding="UTF-8"?>
<svg xmlns="http://www.w3.org/2000/svg" xmlns:xlink="http://www.w3.org/1999/xlink" width="32px" height="32px" viewBox="0 0 32 32" version="1.1">
<defs>
<clipPath id="clip1">
  <path d="M 3.953125 3.070312 L 28.796875 3.070312 L 28.796875 28.980469 L 3.953125 28.980469 Z M 3.953125 3.070312 "/>
</clipPath>
<clipPath id="clip2">
  <path d="M 11.914062 10.523438 L 21.933594 10.523438 L 21.933594 21.976562 L 11.914062 21.976562 Z M 11.914062 10.523438 "/>
</clipPath>
<clipPath id="clip3">
  <path d="M 16.925781 10.523438 L 18.957031 12.769531 L 21.933594 13.386719 L 20.984375 16.25 L 21.933594 19.113281 L 18.957031 19.730469 L 16.925781 21.972656 L 14.894531 19.730469 L 11.914062 19.113281 L 12.863281 16.25 L 11.914062 13.386719 L 14.894531 12.769531 Z M 16.925781 10.523438 "/>
</clipPath>
<clipPath id="clip4">
  <path d="M 16.925781 10.523438 L 18.957031 12.769531 L 21.933594 13.386719 L 20.984375 16.25 L 21.933594 19.113281 L 18.957031 19.730469 L 16.925781 21.972656 L 14.894531 19.730469 L 11.914062 19.113281 L 12.863281 16.25 L 11.914062 13.386719 L 14.894531 12.769531 Z M 16.925781 10.523438 "/>
</clipPath>
<clipPath id="clip5">
  <path d="M 14.25 13 L 19.710938 13 L 19.710938 20 L 14.25 20 Z M 14.25 13 "/>
</clipPath>
</defs>
<g id="surface1">
<g clip-path="url(#clip1)" clip-rule="nonzero">
<path style=" stroke:none;fill-rule:evenodd;fill:rgb(0%,74.901962%,38.82353%);fill-opacity:1;" d="M 21.488281 11.367188 C 19.382812 9.28125 16.21875 8.910156 13.652344 10.335938 C 13.101562 10.621094 12.421875 11.214844 11.566406 12.070312 C 9.28125 14.375 6.910156 16.746094 4.429688 19.207031 C 4.363281 19.269531 4.339844 19.25 4.320312 19.160156 C 3.199219 14.113281 4.824219 9.085938 8.820312 5.921875 C 13.738281 2.035156 20.71875 2.144531 25.398438 6.296875 C 26.273438 7.085938 27.394531 8.183594 28.734375 9.609375 C 28.777344 9.65625 28.777344 9.699219 28.734375 9.742188 L 24.34375 14.132812 C 24.34375 14.132812 24.320312 14.132812 24.300781 14.132812 C 24.300781 14.132812 24.277344 14.132812 24.253906 14.132812 C 23.421875 13.277344 22.5 12.355469 21.488281 11.367188 Z M 14.308594 22.058594 C 16.878906 23.113281 19.644531 22.542969 21.621094 20.589844 C 22.476562 19.710938 23.355469 18.832031 24.253906 17.953125 C 24.277344 17.910156 24.34375 17.910156 24.363281 17.953125 L 28.777344 22.367188 C 28.800781 22.386719 28.800781 22.410156 28.777344 22.433594 C 27.746094 23.507812 26.691406 24.539062 25.636719 25.550781 C 21.839844 29.21875 15.867188 29.964844 11.167969 27.636719 C 8.953125 26.558594 7.152344 24.890625 5.769531 22.675781 C 5.769531 22.652344 5.746094 22.628906 5.746094 22.609375 C 5.746094 22.585938 5.769531 22.542969 5.789062 22.519531 L 9.894531 18.414062 C 9.917969 18.394531 9.984375 18.394531 10.007812 18.414062 C 10.816406 19.25 11.652344 20.082031 12.507812 20.894531 C 13.015625 21.355469 13.605469 21.753906 14.308594 22.058594 Z M 20.148438 16.023438 C 20.148438 14.242188 18.679688 12.773438 16.878906 12.773438 C 15.101562 12.773438 13.628906 14.242188 13.628906 16.023438 C 13.628906 17.820312 15.101562 19.292969 16.878906 19.292969 C 18.679688 19.292969 20.148438 17.820312 20.148438 16.023438 Z M 20.148438 16.023438 "/>
</g>
<g clip-path="url(#clip2)" clip-rule="nonzero">
<g clip-path="url(#clip3)" clip-rule="nonzero">
<g clip-path="url(#clip4)" clip-rule="nonzero">
<path style=" stroke:none;fill-rule:nonzero;fill:rgb(0%,74.901962%,38.82353%);fill-opacity:1;" d="M 11.914062 10.523438 L 21.933594 10.523438 L 21.933594 21.992188 L 11.914062 21.992188 Z M 11.914062 10.523438 "/>
</g>
</g>
</g>
<g clip-path="url(#clip5)" clip-rule="nonzero">
<path style=" stroke:none;fill-rule:nonzero;fill:rgb(100%,100%,100%);fill-opacity:1;" d="M 16.691406 13.289062 C 16.800781 13.273438 16.933594 13.265625 17.09375 13.265625 C 17.191406 13.265625 17.347656 13.273438 17.570312 13.285156 C 17.789062 13.300781 17.972656 13.328125 18.125 13.371094 C 18.648438 13.53125 19.015625 13.847656 19.234375 14.320312 C 19.238281 14.332031 19.246094 14.351562 19.257812 14.382812 C 19.332031 14.53125 19.367188 14.636719 19.367188 14.703125 C 19.367188 14.714844 19.359375 14.738281 19.347656 14.777344 C 19.335938 14.8125 19.210938 14.894531 18.972656 15.023438 C 18.941406 15.039062 18.921875 15.046875 18.910156 15.054688 C 18.59375 15.226562 18.425781 15.3125 18.402344 15.3125 C 18.386719 15.3125 18.347656 15.261719 18.285156 15.160156 C 18.109375 14.898438 17.902344 14.714844 17.65625 14.613281 C 17.527344 14.566406 17.414062 14.542969 17.320312 14.539062 C 17.230469 14.535156 17.175781 14.535156 17.15625 14.535156 C 17 14.535156 16.863281 14.558594 16.746094 14.605469 C 16.472656 14.695312 16.257812 14.890625 16.109375 15.195312 C 15.960938 15.5 15.886719 15.878906 15.886719 16.332031 C 15.894531 16.890625 16.011719 17.324219 16.246094 17.632812 C 16.476562 17.941406 16.800781 18.09375 17.21875 18.09375 C 17.605469 18.089844 17.953125 17.914062 18.257812 17.574219 C 18.410156 17.40625 18.488281 17.3125 18.488281 17.289062 C 18.488281 17.269531 18.503906 17.261719 18.535156 17.261719 C 18.605469 17.261719 18.773438 17.339844 19.035156 17.496094 C 19.230469 17.609375 19.347656 17.679688 19.382812 17.714844 C 19.417969 17.746094 19.4375 17.785156 19.4375 17.835938 C 19.4375 17.839844 19.4375 17.847656 19.4375 17.851562 C 19.429688 17.929688 19.382812 18.050781 19.296875 18.21875 C 19.179688 18.46875 19.003906 18.6875 18.765625 18.867188 C 18.527344 19.050781 18.253906 19.183594 17.945312 19.265625 C 17.765625 19.3125 17.492188 19.335938 17.128906 19.335938 C 16.765625 19.335938 16.496094 19.3125 16.316406 19.265625 C 15.398438 19.015625 14.800781 18.386719 14.527344 17.386719 C 14.46875 17.179688 14.4375 16.851562 14.4375 16.402344 C 14.4375 16.011719 14.460938 15.703125 14.507812 15.484375 C 14.554688 15.261719 14.648438 15.003906 14.789062 14.714844 C 15.167969 13.925781 15.804688 13.453125 16.691406 13.289062 Z M 16.691406 13.289062 "/>
</g>
</g>
</svg>
